<?xml version='1.0' encoding='utf-8'?>
<svg xmlns="http://www.w3.org/2000/svg" width="1920" height="1080" viewBox="0 0 1920 1080" data-theme="light">
  <style>
        @font-face {
            font-family: 'Inter';
            src: url('assets/fonts/Inter-Regular.ttf') format('truetype');
            font-weight: 400;
            font-style: normal;
            font-display: swap;
        }
        @font-face {
            font-family: 'Inter';
            src: url('assets/fonts/Inter-Bold.ttf') format('truetype');
            font-weight: 600;
            font-style: normal;
            font-display: swap;
        }
        @font-face {
            font-family: 'Inter';
            src: url('assets/fonts/Inter-Bold.ttf') format('truetype');
            font-weight: 800;
            font-style: normal;
            font-display: swap;
        }
        
:root {
    --background: #f8fafc;
    --panel: #ffffff;
    --primary-text: #0f172a;
    --muted-text: #64748b;
    --inverse-text: #ffffff;
    --border: #e2e8f0;
    --shadow-color: #000000;
    --icon-pad-bg: #1e293b;
    --art-glow: #0891b2;
    --art-glow-opacity: 0.10;
    --art-sheen: #ffffff;
    --art-sheen-opacity: 0.34;
    --art-shadow: #0f172a;
    --art-shadow-opacity: 0.14;
    --art-muted-line: #94a3b8;
    --art-panel-tint: #f1f5f9;
    --font-family: 'Inter', 'Segoe UI', 'Kalam', Roboto, Helvetica, Arial, sans-serif;
    --radius-xl: 16px;
    --font-family-headline: 'Inter', 'Segoe UI', 'Kalam', Roboto, Helvetica, Arial, sans-serif;
    --font-family-body: 'Inter', 'Segoe UI', 'Kalam', Roboto, Helvetica, Arial, sans-serif;
    --font-heading: 'Inter', 'Segoe UI', 'Kalam', Roboto, Helvetica, Arial, sans-serif;
    --font-body: 'Inter', 'Segoe UI', 'Kalam', Roboto, Helvetica, Arial, sans-serif;
    --font-size-h1: 56px;
    --font-size-h2: 40px;
    --font-size-h3: 28px;
    --font-size-body: 24px;
    --font-size-caption: 18px;
    --secondary-text: var(--muted-text);
    --panel-border: var(--border);
    --font-weight-normal: 400;
    --font-weight-medium: 500;
    --font-weight-semibold: 600;
    --font-weight-bold: 700;
    --spacing-gutter-pct: 0.07;
    --spacing-top-pct: 0.15;
    --spacing-bottom-pct: 0.07;
    --spacing-title-y-pct: 0.055;
    --accent-1: #0891b2;
    --accent-2: #0284c7;
    --accent-3: #2563eb;
    --accent-4: #4f46e5;
    --accent-5: #7c3aed;
    --accent-6: #0d9488;
}
:root[data-theme="dark"] {
    --background: #0f172a;
    --panel: #1e293b;
    --primary-text: #f1f5f9;
    --muted-text: #94a3b8;
    --inverse-text: #0f172a;
    --border: #334155;
    --shadow-color: #000000;
    --icon-pad-bg: #1e293b;
    --art-glow: #7dd3fc;
    --art-glow-opacity: 0.18;
    --art-sheen: #ffffff;
    --art-sheen-opacity: 0.18;
    --art-shadow: #000000;
    --art-shadow-opacity: 0.28;
    --art-muted-line: #64748b;
    --art-panel-tint: #1e293b;
    --accent-1: #22d3ee;
    --accent-2: #38bdf8;
    --accent-3: #60a5fa;
    --accent-4: #818cf8;
    --accent-5: #a78bfa;
    --accent-6: #2dd4bf;
}
:root[data-theme="light"] {
    --background: #f8fafc;
    --panel: #ffffff;
    --primary-text: #0f172a;
    --muted-text: #64748b;
    --inverse-text: #ffffff;
    --border: #e2e8f0;
    --shadow-color: #000000;
    --icon-pad-bg: #1e293b;
    --art-glow: #0891b2;
    --art-glow-opacity: 0.10;
    --art-sheen: #ffffff;
    --art-sheen-opacity: 0.34;
    --art-shadow: #0f172a;
    --art-shadow-opacity: 0.14;
    --art-muted-line: #94a3b8;
    --art-panel-tint: #f1f5f9;
    --accent-1: #0891b2;
    --accent-2: #0284c7;
    --accent-3: #2563eb;
    --accent-4: #4f46e5;
    --accent-5: #7c3aed;
    --accent-6: #0d9488;
}</style>
  <rect x="0" y="0" width="1.92E+3" height="1.08E+3" fill="#252a34" stroke="none" id="programmatic_background"/>
  <line id="HEADER_DECOR" x1="960.0" x2="1080.0" y1="135.0" y2="135.0" stroke="var(--accent-1)" stroke-width="6" stroke-linecap="round"/>
  <defs>
    <pattern id="svg43cb7d0b-napkin-hatch" patternUnits="userSpaceOnUse" width="12" height="12">
      <path d="M -3 12 L 12 -3 M 0 15 L 15 0" fill="none" stroke="var(--primary-text)" stroke-width="1" stroke-opacity="0.05"/>
    </pattern>
    <radialGradient id="svg43cb7d0b-universal-edge-vignette" cx="50%" cy="50%" r="72%">
      <stop offset="0%" stop-color="var(--background)" stop-opacity="0"/>
      <stop offset="72%" stop-color="var(--background)" stop-opacity="0.12"/>
      <stop offset="100%" stop-color="var(--primary-text)" stop-opacity="0.08"/>
    </radialGradient>
    <linearGradient id="svg43cb7d0b-universal-surface-sheen" x1="0%" y1="0%" x2="100%" y2="100%">
      <stop offset="0%" stop-color="var(--art-sheen)" stop-opacity="var(--art-sheen-opacity)"/>
      <stop offset="46%" stop-color="var(--art-sheen)" stop-opacity="0.035"/>
      <stop offset="100%" stop-color="var(--art-panel-tint)" stop-opacity="0.14"/>
    </linearGradient>
    <radialGradient id="svg43cb7d0b-universal-icon-aura" cx="50%" cy="42%" r="64%">
      <stop offset="0%" stop-color="var(--art-glow)" stop-opacity="var(--art-glow-opacity)"/>
      <stop offset="100%" stop-color="var(--background)" stop-opacity="0"/>
    </radialGradient>
    <filter id="svg43cb7d0b-text-glow" x="-20%" y="-20%" width="140%" height="140%">
      <feDropShadow dx="0" dy="0" stdDeviation="2" flood-color="#000000" flood-opacity="0.4"/>
    </filter>
    <filter id="svg43cb7d0b-shadow" x="-30%" y="-30%" width="160%" height="160%">
      <feDropShadow dx="0" dy="2" stdDeviation="3" flood-color="#000000" flood-opacity="0.08"/>
      <feDropShadow dx="0" dy="6" stdDeviation="10" flood-color="#000000" flood-opacity="0.12"/>
    </filter>
    <marker id="svg43cb7d0b-arrowhead" markerWidth="10" markerHeight="7" refX="9" refY="3.5" orient="auto" markerUnits="strokeWidth">
      <polygon points="0 0, 10 3.5, 0 7" fill="var(--muted-text)" opacity="0.6"/>
    </marker>
  </defs>
  <rect width="100%" height="100%" fill="var(--background)" id="CANVAS_BG"/>
  <rect width="100%" height="100%" fill="url(#svg43cb7d0b-napkin-hatch)"/>
  <rect id="UNIVERSAL_EDGE_VIGNETTE" width="100%" height="100%" fill="url(#svg43cb7d0b-universal-edge-vignette)" opacity="0.62"/>
  <text id="TITLE" x="960.0" y="59" text-anchor="middle" font-weight="700" font-size="63" fill="#0f172a" style="font-size: 60px; font-family: Inter, Segoe UI, Kalam, Roboto, Helvetica, Arial, sans-serif; font-weight: 700; letter-spacing:-1.2px;" data-final-font-size="60">
    <tspan x="960.0" dy="68.00px">Project Mogul Radar Reflector Components</tspan>
  </text>
  <rect id="TITLE_FRAME" x="134" y="59" width="1652" height="103" fill="none"/>
  <g id="DIAGRAM_SCALER" transform="translate(50.3, 35.1) scale(0.95)">
    <g transform="translate(345.0, 360.0)">
      <rect id="ITEM_1_BG" x="-270" y="-135" width="540" height="270" rx="22" fill="var(--accent-3)" stroke="var(--accent-1)" stroke-width="2" fill-opacity="1.0"/>
      <circle cx="-180" cy="0" r="50" fill="var(--accent-1)" opacity="0.15"/>
      <g transform="translate(-30.0, -15.0)">
        <text id="ITEM_1_HEAD" text-anchor="start" font-weight="bold" font-size="36" fill="var(--inverse-text)" x="-100.0" y="-84.0" data-bg-id="ITEM_1_BG" fill-opacity="1.0" style="font-size: 30px; font-family: Inter, Segoe UI, Kalam, Roboto, Helvetica, Arial, sans-serif; font-weight: 700; letter-spacing:-0.4px;" data-final-font-size="30">
          <tspan x="-100.0" dy="36.57px">Metallic Foil</tspan>
        </text>
        <rect id="ITEM_1_HEAD_FRAME" x="-100" y="-84" width="380" height="48" fill="none"/>
        <text id="ITEM_1_BODY" text-anchor="start" font-size="24" fill="var(--inverse-text)" x="-100.0" y="-8.0" data-bg-id="ITEM_1_BG" style="font-size: 24px; font-family: Inter, Segoe UI, Kalam, Roboto, Helvetica, Arial, sans-serif; font-weight: 400;" data-final-font-size="24">
          <tspan x="-100.0" dy="40.73px">Thin surfaces provide the primary</tspan>
          <tspan x="-100.0" dy="27.60px">reflective return</tspan>
        </text>
        <rect id="ITEM_1_BODY_FRAME" x="-100" y="-8" width="430" height="138" fill="none"/>
        <rect id="ITEM_1_TEXT_FRAME" x="-100" y="-4" width="380" height="128" fill="none"/>
      </g>
      <circle id="ITEM_1_PAD" cx="-186" cy="0.0" r="48" fill="var(--icon-pad-bg)" stroke="var(--primary-text)" opacity="0.9" fill-opacity="0.9" stroke-width="2"/>
      <circle id="ITEM_1_PAD_INNER" cx="-186" cy="0.0" r="37.44" fill="var(--accent-3)" fill-opacity="0.22"/>
      <circle cx="-186" cy="0.0" r="38" fill="none" stroke="var(--accent-1)" stroke-width="3" stroke-dasharray="6 4"/>
      <g id="ITEM_1_ICON" transform="translate(-224, -38)" data-icon-size="76" stroke-dasharray="6 4">
        <g transform="translate(-11.92156862745098,-13.411764705882355) scale(3.973856209150327)" vector-effect="non-scaling-stroke" fill="#f1f5f9" fill-opacity="1.0" stroke="none">
          <path fill="#f1f5f9" d="M21 5H3v2h18zM3 19h7v-2H3zm0-6h15c1 0 2 .43 2 2s-1 2-2 2h-2v-2l-4 3l4 3v-2h2c2.95 0 4-1.27 4-4c0-2.72-1-4-4-4H3z" vector-effect="non-scaling-stroke" stroke="none"/>
        </g>
      </g>
    </g>
    <g transform="translate(960.0, 360.0)">
      <rect id="ITEM_2_BG" x="-270" y="-135" width="540" height="270" rx="22" fill="var(--accent-4)" stroke="var(--accent-2)" stroke-width="2" fill-opacity="1.0"/>
      <circle cx="-180" cy="0" r="50" fill="var(--accent-1)" opacity="0.15"/>
      <g transform="translate(-30.0, -15.0)">
        <text id="ITEM_2_HEAD" text-anchor="start" font-weight="bold" font-size="36" fill="var(--inverse-text)" x="-100.0" y="-84.0" data-bg-id="ITEM_2_BG" fill-opacity="1.0" style="font-size: 30px; font-family: Inter, Segoe UI, Kalam, Roboto, Helvetica, Arial, sans-serif; font-weight: 700; letter-spacing:-0.4px;" data-final-font-size="30">
          <tspan x="-100.0" dy="36.57px">Balsa Wood</tspan>
        </text>
        <rect id="ITEM_2_HEAD_FRAME" x="-100" y="-84" width="380" height="48" fill="none"/>
        <text id="ITEM_2_BODY" text-anchor="start" font-size="24" fill="var(--inverse-text)" x="-100.0" y="-8.0" data-bg-id="ITEM_2_BG" style="font-size: 24px; font-family: Inter, Segoe UI, Kalam, Roboto, Helvetica, Arial, sans-serif; font-weight: 400;" data-final-font-size="24">
          <tspan x="-100.0" dy="40.73px">Light weight timber provides</tspan>
          <tspan x="-100.0" dy="27.60px">necessary structural rigidity</tspan>
        </text>
        <rect id="ITEM_2_BODY_FRAME" x="-100" y="-8" width="430" height="138" fill="none"/>
        <rect id="ITEM_2_TEXT_FRAME" x="-100" y="-4" width="380" height="128" fill="none"/>
      </g>
      <circle id="ITEM_2_PAD" cx="-186" cy="0.0" r="48" fill="var(--icon-pad-bg)" stroke="var(--primary-text)" opacity="0.9" fill-opacity="0.9" stroke-width="2"/>
      <circle id="ITEM_2_PAD_INNER" cx="-186" cy="0.0" r="37.44" fill="var(--accent-4)" fill-opacity="0.22"/>
      <circle cx="-186" cy="0.0" r="38" fill="none" stroke="var(--accent-2)" stroke-width="3" stroke-dasharray="6 4"/>
      <g id="ITEM_2_ICON" transform="translate(-224, -38)" data-icon-size="76" stroke-dasharray="6 4">
        <g transform="translate(-8.038461538461535,-8.769230769230768) scale(2.923076923076923)">
          <path d="M24 6.5H8V25.5C8 27.433 11.5817 29 16 29C20.4183 29 24 27.433 24 25.5V6.5Z" fill="#6D4534"/>
          <path d="M15.9999 9.99995C20.4182 9.99995 23.9999 8.43295 23.9999 6.49995C23.9999 4.56696 20.4182 2.99995 15.9999 2.99995C11.5817 2.99995 7.99994 4.56696 7.99994 6.49995C7.99994 7.13672 8.3207 7.68135 8.99994 8.19575C9.02224 8.21333 8.97697 8.17836 8.99994 8.19575V14.5C8.99994 14.7761 9.2238 15 9.49994 15C9.77608 15 9.99994 14.7761 9.99994 14.5V8.8151C10.0269 8.8289 9.97247 8.80148 9.99994 8.8151C11.4672 9.5655 13.5658 9.99995 15.9999 9.99995Z" fill="#A56953"/>
          <path d="M27.3536 10.7677L24 14.1213L24 25.5C24 26.3876 23.2447 27.1981 21.9999 27.8151V23.5C21.9999 23.2239 21.7761 23 21.4999 23C21.2264 23 21.0042 23.2196 21 23.4921V13.9142C21 13.2511 21.2634 12.6153 21.7322 12.1464L25.2322 8.64641C25.6228 8.25588 26.2559 8.25589 26.6464 8.64641L27.3536 9.35352C27.7441 9.74404 27.7441 10.3772 27.3536 10.7677Z" fill="#A56953"/>
          <path d="M4.14641 19.2677L7.99996 23.1213V25.5C7.99997 26.6053 9.17104 27.5909 11 28.2323V22.9142C11 22.2511 10.7366 21.6152 10.2677 21.1464L6.26773 17.1464C5.8772 16.7559 5.24404 16.7559 4.85352 17.1464L4.14641 17.8535C3.75588 18.244 3.75588 18.8772 4.14641 19.2677Z" fill="#A56953"/>
          <path d="M11.9999 15.5C11.9999 15.2239 12.2238 15 12.4999 15C12.7761 15 12.9999 15.2239 12.9999 15.5V19.5C12.9999 19.7761 12.7761 20 12.4999 20C12.2238 20 11.9999 19.7761 11.9999 19.5V15.5Z" fill="#A56953"/>
          <path d="M23 6.25C23 7.76878 19.866 9 16 9C12.134 9 9 7.76878 9 6.25C9 4.73122 12.134 3.5 16 3.5C19.866 3.5 23 4.73122 23 6.25Z" fill="#F3AD61"/>
          <path d="M16 8C18.7614 8 21 7.16053 21 6.125C21 5.08947 18.7614 4.25 16 4.25C13.2386 4.25 11 5.08947 11 6.125C11 7.16053 13.2386 8 16 8ZM16 7C14.3431 7 13 6.55228 13 6C13 5.44772 14.3431 5 16 5C17.6569 5 19 5.44772 19 6C19 6.55228 17.6569 7 16 7Z" fill="#6D4534"/>
        </g>
      </g>
    </g>
    <g transform="translate(1575.0, 360.0)">
      <rect id="ITEM_3_BG" x="-270" y="-135" width="540" height="270" rx="22" fill="var(--accent-5)" stroke="var(--accent-3)" stroke-width="2" fill-opacity="1.0"/>
      <circle cx="-180" cy="0" r="50" fill="var(--accent-1)" opacity="0.15"/>
      <g transform="translate(-30.0, -15.0)">
        <text id="ITEM_3_HEAD" text-anchor="start" font-weight="bold" font-size="36" fill="var(--inverse-text)" x="-100.0" y="-84.0" data-bg-id="ITEM_3_BG" fill-opacity="1.0" style="font-size: 30px; font-family: Inter, Segoe UI, Kalam, Roboto, Helvetica, Arial, sans-serif; font-weight: 700; letter-spacing:-0.4px;" data-final-font-size="30">
          <tspan x="-100.0" dy="36.57px">Decorative Tape</tspan>
        </text>
        <rect id="ITEM_3_HEAD_FRAME" x="-100" y="-84" width="380" height="48" fill="none"/>
        <text id="ITEM_3_BODY" text-anchor="start" font-size="24" fill="var(--inverse-text)" x="-100.0" y="-8.0" data-bg-id="ITEM_3_BG" style="font-size: 24px; font-family: Inter, Segoe UI, Kalam, Roboto, Helvetica, Arial, sans-serif; font-weight: 400;" data-final-font-size="24">
          <tspan x="-100.0" dy="40.73px">Toy manufacturer tape seals</tspan>
          <tspan x="-100.0" dy="27.60px">the structural seams</tspan>
        </text>
        <rect id="ITEM_3_BODY_FRAME" x="-100" y="-8" width="430" height="138" fill="none"/>
        <rect id="ITEM_3_TEXT_FRAME" x="-100" y="-4" width="380" height="128" fill="none"/>
      </g>
      <circle id="ITEM_3_PAD" cx="-186" cy="0.0" r="48" fill="var(--icon-pad-bg)" stroke="var(--primary-text)" opacity="0.9" fill-opacity="0.9" stroke-width="2"/>
      <circle id="ITEM_3_PAD_INNER" cx="-186" cy="0.0" r="37.44" fill="var(--accent-5)" fill-opacity="0.22"/>
      <circle cx="-186" cy="0.0" r="38" fill="none" stroke="var(--accent-3)" stroke-width="3" stroke-dasharray="6 4"/>
      <g id="ITEM_3_ICON" transform="translate(-224, -38)" data-icon-size="76" stroke-dasharray="6 4">
        <g transform="translate(-12.666666666666668,-12.666666666666668) scale(4.222222222222222)" vector-effect="non-scaling-stroke" fill="#f1f5f9" fill-opacity="1.0" stroke="none">
          <path fill="#f1f5f9" d="M12 10a2 2 0 0 1 2 2c0 1.11-.89 2-2 2a2 2 0 1 1 0-4M5 3h14a2 2 0 0 1 2 2v12h-4.1a6.96 6.96 0 0 0 2.1-5c0-3.87-3.13-7-7-7s-7 3.13-7 7s3.13 7 7 7h9c0 1.11-.89 2-2 2H5a2 2 0 0 1-2-2V5c0-1.1.9-2 2-2" vector-effect="non-scaling-stroke" stroke="none"/>
        </g>
      </g>
    </g>
    <g transform="translate(652.5, 720.0)">
      <rect id="ITEM_4_BG" x="-270" y="-135" width="540" height="270" rx="22" fill="var(--accent-6)" stroke="var(--accent-4)" stroke-width="2" fill-opacity="1.0"/>
      <circle cx="-180" cy="0" r="50" fill="var(--accent-1)" opacity="0.15"/>
      <g transform="translate(-30.0, -15.0)">
        <text id="ITEM_4_HEAD" text-anchor="start" font-weight="bold" font-size="36" fill="var(--primary-text)" x="-100.0" y="-84.0" data-bg-id="ITEM_4_BG" fill-opacity="1.0" style="font-size: 30px; font-family: Inter, Segoe UI, Kalam, Roboto, Helvetica, Arial, sans-serif; font-weight: 700; letter-spacing:-0.4px;" data-final-font-size="30">
          <tspan x="-100.0" dy="36.57px">Geometric Frames</tspan>
        </text>
        <rect id="ITEM_4_HEAD_FRAME" x="-100" y="-84" width="380" height="48" fill="none"/>
        <text id="ITEM_4_BODY" text-anchor="start" font-size="24" fill="var(--primary-text)" x="-100.0" y="-8.0" data-bg-id="ITEM_4_BG" style="font-size: 24px; font-family: Inter, Segoe UI, Kalam, Roboto, Helvetica, Arial, sans-serif; font-weight: 400;" data-final-font-size="24">
          <tspan x="-100.0" dy="40.73px">Angular shapes bounce signals</tspan>
          <tspan x="-100.0" dy="27.60px">back to transmitters</tspan>
        </text>
        <rect id="ITEM_4_BODY_FRAME" x="-100" y="-8" width="430" height="138" fill="none"/>
        <rect id="ITEM_4_TEXT_FRAME" x="-100" y="-4" width="380" height="128" fill="none"/>
      </g>
      <circle id="ITEM_4_PAD" cx="-186" cy="0.0" r="48" fill="var(--icon-pad-bg)" stroke="var(--primary-text)" opacity="0.9" fill-opacity="0.9" stroke-width="2"/>
      <circle id="ITEM_4_PAD_INNER" cx="-186" cy="0.0" r="37.44" fill="var(--accent-6)" fill-opacity="0.22"/>
      <circle cx="-186" cy="0.0" r="38" fill="none" stroke="var(--accent-4)" stroke-width="3" stroke-dasharray="6 4"/>
      <g id="ITEM_4_ICON" transform="translate(-224, -38)" data-icon-size="76" stroke-dasharray="6 4">
        <g transform="translate(-3.2203389830508473,-3.2203389830508473) scale(3.4350282485875705)" vector-effect="non-scaling-stroke" stroke-width="2.62" stroke-linecap="round" stroke-linejoin="round" stroke-opacity="1.0">
          <line x1="22" x2="2" y1="6" y2="6" vector-effect="non-scaling-stroke" fill="none" stroke="#f1f5f9"/>
          <line x1="22" x2="2" y1="18" y2="18" vector-effect="non-scaling-stroke" fill="none" stroke="#f1f5f9"/>
          <line x1="6" x2="6" y1="2" y2="22" vector-effect="non-scaling-stroke" fill="none" stroke="#f1f5f9"/>
          <line x1="18" x2="18" y1="2" y2="22" vector-effect="non-scaling-stroke" fill="none" stroke="#f1f5f9"/>
        </g>
      </g>
    </g>
    <g transform="translate(1267.5, 720.0)">
      <rect id="ITEM_5_BG" x="-270" y="-135" width="540" height="270" rx="22" fill="var(--accent-1)" stroke="var(--accent-5)" stroke-width="2" fill-opacity="1.0"/>
      <circle cx="-180" cy="0" r="50" fill="var(--accent-1)" opacity="0.15"/>
      <g transform="translate(-30.0, -15.0)">
        <text id="ITEM_5_HEAD" text-anchor="start" font-weight="bold" font-size="36" fill="var(--primary-text)" x="-100.0" y="-84.0" data-bg-id="ITEM_5_BG" fill-opacity="1.0" style="font-size: 30px; font-family: Inter, Segoe UI, Kalam, Roboto, Helvetica, Arial, sans-serif; font-weight: 700; letter-spacing:-0.4px;" data-final-font-size="30">
          <tspan x="-100.0" dy="36.57px">String and Fittings</tspan>
        </text>
        <rect id="ITEM_5_HEAD_FRAME" x="-100" y="-84" width="380" height="48" fill="none"/>
        <text id="ITEM_5_BODY" text-anchor="start" font-size="24" fill="var(--primary-text)" x="-100.0" y="-8.0" data-bg-id="ITEM_5_BG" style="font-size: 24px; font-family: Inter, Segoe UI, Kalam, Roboto, Helvetica, Arial, sans-serif; font-weight: 400;" data-final-font-size="24">
          <tspan x="-100.0" dy="40.73px">Small metal parts secure</tspan>
          <tspan x="-100.0" dy="27.60px">the light weight assembly</tspan>
        </text>
        <rect id="ITEM_5_BODY_FRAME" x="-100" y="-8" width="430" height="138" fill="none"/>
        <rect id="ITEM_5_TEXT_FRAME" x="-100" y="-4" width="380" height="128" fill="none"/>
      </g>
      <circle id="ITEM_5_PAD" cx="-186" cy="0.0" r="48" fill="var(--icon-pad-bg)" stroke="var(--primary-text)" opacity="0.9" fill-opacity="0.9" stroke-width="2"/>
      <circle id="ITEM_5_PAD_INNER" cx="-186" cy="0.0" r="37.44" fill="var(--accent-1)" fill-opacity="0.22"/>
      <circle cx="-186" cy="0.0" r="38" fill="none" stroke="var(--accent-5)" stroke-width="3" stroke-dasharray="6 4"/>
      <g id="ITEM_5_ICON" transform="translate(-224, -38)" data-icon-size="76" stroke-dasharray="6 4">
        <g transform="translate(-3.2203389830508433,-3.2203389830508473) scale(3.4350282485875705)" vector-effect="non-scaling-stroke" stroke-width="2.62" stroke-linecap="round" stroke-linejoin="round" stroke-opacity="1.0">
          <path d="M21 16V8a2 2 0 0 0-1-1.73l-7-4a2 2 0 0 0-2 0l-7 4A2 2 0 0 0 3 8v8a2 2 0 0 0 1 1.73l7 4a2 2 0 0 0 2 0l7-4A2 2 0 0 0 21 16z" vector-effect="non-scaling-stroke" fill="none" stroke="#f1f5f9"/>
          <circle cx="12" cy="12" r="4" vector-effect="non-scaling-stroke" fill="none" stroke="#f1f5f9"/>
        </g>
      </g>
    </g>
  </g>
</svg>
