<?xml version='1.0' encoding='utf-8'?>
<svg xmlns="http://www.w3.org/2000/svg" width="1920" height="1080" viewBox="0 0 1920 1080" data-theme="light">
  <style>
        @font-face {
            font-family: 'Inter';
            src: url('assets/fonts/Inter-Regular.ttf') format('truetype');
            font-weight: 400;
            font-style: normal;
            font-display: swap;
        }
        @font-face {
            font-family: 'Inter';
            src: url('assets/fonts/Inter-Bold.ttf') format('truetype');
            font-weight: 600;
            font-style: normal;
            font-display: swap;
        }
        @font-face {
            font-family: 'Inter';
            src: url('assets/fonts/Inter-Bold.ttf') format('truetype');
            font-weight: 800;
            font-style: normal;
            font-display: swap;
        }
        
:root {
    --background: #f8fafc;
    --panel: #ffffff;
    --primary-text: #0f172a;
    --muted-text: #64748b;
    --inverse-text: #ffffff;
    --border: #e2e8f0;
    --shadow-color: #000000;
    --icon-pad-bg: #1e293b;
    --art-glow: #0891b2;
    --art-glow-opacity: 0.10;
    --art-sheen: #ffffff;
    --art-sheen-opacity: 0.34;
    --art-shadow: #0f172a;
    --art-shadow-opacity: 0.14;
    --art-muted-line: #94a3b8;
    --art-panel-tint: #f1f5f9;
    --font-family: 'Inter', 'Segoe UI', 'Kalam', Roboto, Helvetica, Arial, sans-serif;
    --radius-xl: 16px;
    --font-family-headline: 'Inter', 'Segoe UI', 'Kalam', Roboto, Helvetica, Arial, sans-serif;
    --font-family-body: 'Inter', 'Segoe UI', 'Kalam', Roboto, Helvetica, Arial, sans-serif;
    --font-heading: 'Inter', 'Segoe UI', 'Kalam', Roboto, Helvetica, Arial, sans-serif;
    --font-body: 'Inter', 'Segoe UI', 'Kalam', Roboto, Helvetica, Arial, sans-serif;
    --font-size-h1: 56px;
    --font-size-h2: 40px;
    --font-size-h3: 28px;
    --font-size-body: 24px;
    --font-size-caption: 18px;
    --secondary-text: var(--muted-text);
    --panel-border: var(--border);
    --font-weight-normal: 400;
    --font-weight-medium: 500;
    --font-weight-semibold: 600;
    --font-weight-bold: 700;
    --spacing-gutter-pct: 0.07;
    --spacing-top-pct: 0.15;
    --spacing-bottom-pct: 0.07;
    --spacing-title-y-pct: 0.055;
    --accent-1: #3b82f6;
    --accent-2: #22c55e;
    --accent-3: #f59e0b;
    --accent-4: #ec4899;
    --accent-5: #8b5cf6;
    --accent-6: #06b6d4;
}
:root[data-theme="dark"] {
    --background: #0f172a;
    --panel: #1e293b;
    --primary-text: #f1f5f9;
    --muted-text: #94a3b8;
    --inverse-text: #0f172a;
    --border: #334155;
    --shadow-color: #000000;
    --icon-pad-bg: #1e293b;
    --art-glow: #7dd3fc;
    --art-glow-opacity: 0.18;
    --art-sheen: #ffffff;
    --art-sheen-opacity: 0.18;
    --art-shadow: #000000;
    --art-shadow-opacity: 0.28;
    --art-muted-line: #64748b;
    --art-panel-tint: #1e293b;
    --accent-1: #93c5fd;
    --accent-2: #86efac;
    --accent-3: #fcd34d;
    --accent-4: #f9a8d4;
    --accent-5: #c4b5fd;
    --accent-6: #a5f3fc;
}
:root[data-theme="light"] {
    --background: #f8fafc;
    --panel: #ffffff;
    --primary-text: #0f172a;
    --muted-text: #64748b;
    --inverse-text: #ffffff;
    --border: #e2e8f0;
    --shadow-color: #000000;
    --icon-pad-bg: #1e293b;
    --art-glow: #0891b2;
    --art-glow-opacity: 0.10;
    --art-sheen: #ffffff;
    --art-sheen-opacity: 0.34;
    --art-shadow: #0f172a;
    --art-shadow-opacity: 0.14;
    --art-muted-line: #94a3b8;
    --art-panel-tint: #f1f5f9;
    --accent-1: #3b82f6;
    --accent-2: #22c55e;
    --accent-3: #f59e0b;
    --accent-4: #ec4899;
    --accent-5: #8b5cf6;
    --accent-6: #06b6d4;
}</style>
  <rect x="0" y="0" width="1.92E+3" height="1.08E+3" fill="#252a34" stroke="none" id="programmatic_background"/>
  <line id="HEADER_DECOR" x1="960.0" x2="1080.0" y1="125.0" y2="125.0" stroke="var(--accent-1)" stroke-width="6" stroke-linecap="round"/>
  <defs>
    <pattern id="svg961f0b9e-napkin-hatch" patternUnits="userSpaceOnUse" width="12" height="12">
      <path d="M -3 12 L 12 -3 M 0 15 L 15 0" fill="none" stroke="var(--primary-text)" stroke-width="1" stroke-opacity="0.05"/>
    </pattern>
    <filter id="svg961f0b9e-soft-shadow" x="-30%" y="-30%" width="160%" height="160%">
      <feDropShadow dx="0" dy="4" stdDeviation="10" flood-color="#000000" flood-opacity="0.2"/>
    </filter>
    <radialGradient id="svg961f0b9e-universal-edge-vignette" cx="50%" cy="50%" r="72%">
      <stop offset="0%" stop-color="var(--background)" stop-opacity="0"/>
      <stop offset="72%" stop-color="var(--background)" stop-opacity="0.12"/>
      <stop offset="100%" stop-color="var(--primary-text)" stop-opacity="0.08"/>
    </radialGradient>
    <linearGradient id="svg961f0b9e-universal-surface-sheen" x1="0%" y1="0%" x2="100%" y2="100%">
      <stop offset="0%" stop-color="var(--art-sheen)" stop-opacity="var(--art-sheen-opacity)"/>
      <stop offset="46%" stop-color="var(--art-sheen)" stop-opacity="0.035"/>
      <stop offset="100%" stop-color="var(--art-panel-tint)" stop-opacity="0.14"/>
    </linearGradient>
    <radialGradient id="svg961f0b9e-universal-icon-aura" cx="50%" cy="42%" r="64%">
      <stop offset="0%" stop-color="var(--art-glow)" stop-opacity="var(--art-glow-opacity)"/>
      <stop offset="100%" stop-color="var(--background)" stop-opacity="0"/>
    </radialGradient>
    <linearGradient id="svg961f0b9e-comparison-card-depth" x1="0%" y1="0%" x2="0%" y2="100%">
      <stop offset="0%" stop-color="var(--art-sheen)" stop-opacity="0.30"/>
      <stop offset="55%" stop-color="var(--art-sheen)" stop-opacity="0.035"/>
      <stop offset="100%" stop-color="var(--art-shadow)" stop-opacity="0.10"/>
    </linearGradient>
    <filter id="svg961f0b9e-text-glow" x="-20%" y="-20%" width="140%" height="140%">
      <feDropShadow dx="0" dy="0" stdDeviation="2" flood-color="#000000" flood-opacity="0.4"/>
    </filter>
    <filter id="svg961f0b9e-shadow" x="-30%" y="-30%" width="160%" height="160%">
      <feDropShadow dx="0" dy="2" stdDeviation="3" flood-color="#000000" flood-opacity="0.08"/>
      <feDropShadow dx="0" dy="6" stdDeviation="10" flood-color="#000000" flood-opacity="0.12"/>
    </filter>
    <marker id="svg961f0b9e-arrowhead" markerWidth="10" markerHeight="7" refX="9" refY="3.5" orient="auto" markerUnits="strokeWidth">
      <polygon points="0 0, 10 3.5, 0 7" fill="var(--muted-text)" opacity="0.6"/>
    </marker>
  </defs>
  <rect id="CANVAS_BG" width="100%" height="100%" fill="var(--background)"/>
  <rect width="100%" height="100%" fill="url(#svg961f0b9e-napkin-hatch)"/>
  <rect id="UNIVERSAL_EDGE_VIGNETTE" width="100%" height="100%" fill="url(#svg961f0b9e-universal-edge-vignette)" opacity="0.62"/>
  <text id="TITLE" x="960.0" y="59" text-anchor="middle" font-size="60" font-weight="800" fill="#0f172a" style="font-size: 60px; font-family: Inter, Segoe UI, Kalam, Roboto, Helvetica, Arial, sans-serif; font-weight: 700; letter-spacing:-1.2px;" data-final-font-size="60">
    <tspan x="960.0" dy="68.00px">Evidence Quality Comparison Factors</tspan>
  </text>
  <rect id="TITLE_FRAME" x="134" y="59" width="1652" height="103" fill="none"/>
  <rect x="110" y="180" width="1700" height="770" rx="38" fill="var(--panel)" fill-opacity="0.28" stroke="var(--muted-text)" stroke-width="2" opacity="0.92"/>
  <line x1="960" y1="225" x2="960" y2="545" stroke="var(--muted-text)" stroke-width="4" stroke-dasharray="10 10" opacity="0.35"/>
  <rect x="878" y="370" width="164" height="34" rx="17" fill="var(--background)" stroke="var(--muted-text)" stroke-width="2" opacity="0.9"/>
  <text x="960" y="394" text-anchor="middle" font-size="20" font-weight="700" fill="var(--primary-text)">Tradeoffs</text>
  <g filter="url(#svg961f0b9e-soft-shadow)">
    <rect id="ITEM_1_BG" x="150" y="230" width="700" height="300" rx="30" fill="var(--panel)" fill-opacity="0.97" stroke="var(--accent-1)" stroke-width="3"/>
    <rect x="150" y="230" width="700" height="18" rx="9" fill="var(--accent-1)" fill-opacity="0.55"/>
    <rect x="392" y="258" width="380" height="34" rx="17" fill="var(--accent-1)" fill-opacity="0.12"/>
    <circle id="ITEM_1_PAD" cx="250" cy="322" r="52" fill="var(--icon-pad-bg)" opacity="0.95" fill-opacity="0.9" stroke-width="2" stroke="var(--primary-text)"/>
    <circle id="ITEM_1_PAD_INNER" cx="250" cy="322" r="40.56" fill="var(--accent-2)" fill-opacity="0.22"/>
    <circle cx="250" cy="322" r="42" fill="none" stroke="var(--accent-1)" stroke-width="3" stroke-dasharray="6 4"/>
    <g id="ITEM_1_ICON" transform="translate(212, 284)" data-icon-size="76" stroke-dasharray="6 4">
      <g transform="translate(-2.5600000000000023,-2.5599999999999987) scale(5.7942857142857145)" vector-effect="non-scaling-stroke" stroke-width="2.62" stroke-linecap="round" stroke-linejoin="round" stroke-opacity="1.0">
        <path id="Vector" fill="none" d="M1.5 5h11v7c0 0.2652 -0.1054 0.5196 -0.2929 0.7071S11.7652 13 11.5 13h-9c-0.26522 0 -0.51957 -0.1054 -0.70711 -0.2929C1.60536 12.5196 1.5 12.2652 1.5 12V5Z" vector-effect="non-scaling-stroke" stroke="#f1f5f9"/>
        <path id="Vector_2" fill="none" d="M13.5 4V2c0 -0.55228 -0.4477 -1 -1 -1l-11 0c-0.552285 0 -1 0.44772 -1 1v2c0 0.55228 0.447715 1 1 1l11 0c0.5523 0 1 -0.44772 1 -1Z" vector-effect="non-scaling-stroke" stroke="#f1f5f9"/>
        <path id="Vector_3" stroke="#f1f5f9" d="M1.5 5h11v7c0 0.2652 -0.1054 0.5196 -0.2929 0.7071S11.7652 13 11.5 13h-9c-0.26522 0 -0.51957 -0.1054 -0.70711 -0.2929C1.60536 12.5196 1.5 12.2652 1.5 12V5v0Z" vector-effect="non-scaling-stroke" fill="none"/>
        <path id="Vector_4" stroke="#f1f5f9" d="M13.5 4V2c0 -0.55228 -0.4477 -1 -1 -1l-11 0c-0.552285 0 -1 0.44772 -1 1v2c0 0.55228 0.447715 1 1 1l11 0c0.5523 0 1 -0.44772 1 -1Z" vector-effect="non-scaling-stroke" fill="none"/>
        <path id="Vector_5" stroke="#f1f5f9" d="M5.5 8h3" vector-effect="non-scaling-stroke" fill="none"/>
      </g>
    </g>
    <rect id="ITEM_1_TEXT_BG" x="330.0" y="266.0" width="468.0" height="226.0" rx="22" fill="var(--panel)" fill-opacity="0.94" stroke="var(--primary-text)" stroke-opacity="0.12" stroke-width="1.5"/>
    <rect id="COMPARISON_COLUMNS_ART_PANEL_SHEEN_1" x="330.0" y="266.0" width="468.0" height="226.0" rx="16" fill="var(--accent-2)" opacity="0.82" fill-opacity="1.0"/>
    <text id="ITEM_1_HEAD" x="564.0" y="282.0" text-anchor="middle" font-size="32" font-weight="800" fill="var(--primary-text)" data-bg-id="ITEM_1_TEXT_BG" fill-opacity="1.0" style="font-size: 30px; font-family: Inter, Segoe UI, Kalam, Roboto, Helvetica, Arial, sans-serif; font-weight: 700; letter-spacing:-0.4px;" data-final-font-size="30">
      <tspan x="564.0" dy="40.49px">Documented Provenance</tspan>
    </text>
    <rect id="ITEM_1_HEAD_FRAME" x="364" y="282" width="400" height="52" fill="none"/>
    <text id="ITEM_1_BODY" x="564.0" y="340.0" text-anchor="middle" font-size="19" fill="var(--primary-text)" data-bg-id="ITEM_1_TEXT_BG" style="font-size: 26px; font-family: Inter, Segoe UI, Kalam, Roboto, Helvetica, Arial, sans-serif; font-weight: 400;" data-final-font-size="26">
      <tspan x="564.0" dy="42.57px">Stronger value through verifiable</tspan>
      <tspan x="564.0" dy="29.90px">origin and history</tspan>
    </text>
    <rect id="ITEM_1_BODY_FRAME" x="350" y="340" width="428" height="136" fill="none"/>
  </g>
  <g filter="url(#svg961f0b9e-soft-shadow)">
    <rect id="ITEM_2_BG" x="1070" y="230" width="700" height="300" rx="30" fill="var(--panel)" fill-opacity="0.97" stroke="var(--accent-2)" stroke-width="3"/>
    <rect x="1070" y="230" width="700" height="18" rx="9" fill="var(--accent-2)" fill-opacity="0.55"/>
    <rect x="1312" y="258" width="380" height="34" rx="17" fill="var(--accent-2)" fill-opacity="0.12"/>
    <circle id="ITEM_2_PAD" cx="1170" cy="322" r="52" fill="var(--icon-pad-bg)" opacity="0.95" fill-opacity="0.9" stroke-width="2" stroke="var(--primary-text)"/>
    <circle id="ITEM_2_PAD_INNER" cx="1170" cy="322" r="40.56" fill="var(--accent-3)" fill-opacity="0.22"/>
    <circle cx="1170" cy="322" r="42" fill="none" stroke="var(--accent-2)" stroke-width="3" stroke-dasharray="6 4"/>
    <g id="ITEM_2_ICON" transform="translate(1132, 284)" data-icon-size="76" stroke-dasharray="6 4">
      <g transform="translate(-5.997288135593223,-5.997288135593223) scale(3.666440677966102)" vector-effect="non-scaling-stroke" stroke-width="2.62" stroke-linecap="round" stroke-linejoin="round" stroke-opacity="1.0">
        <path d="m2 2 20 20" vector-effect="non-scaling-stroke" fill="none" stroke="#f1f5f9"/>
        <path d="M8.35 2.69A10 10 0 0 1 21.3 15.65" vector-effect="non-scaling-stroke" fill="none" stroke="#f1f5f9"/>
        <path d="M19.08 19.08A10 10 0 1 1 4.92 4.92" vector-effect="non-scaling-stroke" fill="none" stroke="#f1f5f9"/>
      </g>
    </g>
    <rect id="ITEM_2_TEXT_BG" x="1250.0" y="266.0" width="468.0" height="226.0" rx="22" fill="var(--panel)" fill-opacity="0.94" stroke="var(--primary-text)" stroke-opacity="0.12" stroke-width="1.5"/>
    <rect id="COMPARISON_COLUMNS_ART_PANEL_SHEEN_2" x="1250.0" y="266.0" width="468.0" height="226.0" rx="16" fill="var(--accent-3)" opacity="0.82" fill-opacity="1.0"/>
    <text id="ITEM_2_HEAD" x="1484.0" y="282.0" text-anchor="middle" font-size="32" font-weight="800" fill="var(--primary-text)" data-bg-id="ITEM_2_TEXT_BG" fill-opacity="1.0" style="font-size: 30px; font-family: Inter, Segoe UI, Kalam, Roboto, Helvetica, Arial, sans-serif; font-weight: 700; letter-spacing:-0.4px;" data-final-font-size="30">
      <tspan x="1484.0" dy="40.49px">Isolated Specimen</tspan>
    </text>
    <rect id="ITEM_2_HEAD_FRAME" x="1284" y="282" width="400" height="52" fill="none"/>
    <text id="ITEM_2_BODY" x="1484.0" y="340.0" text-anchor="middle" font-size="19" fill="var(--primary-text)" data-bg-id="ITEM_2_TEXT_BG" style="font-size: 26px; font-family: Inter, Segoe UI, Kalam, Roboto, Helvetica, Arial, sans-serif; font-weight: 400;" data-final-font-size="26">
      <tspan x="1484.0" dy="42.57px">Lower value when history is unknown</tspan>
      <tspan x="1484.0" dy="29.90px">or missing</tspan>
    </text>
    <rect id="ITEM_2_BODY_FRAME" x="1270" y="340" width="428" height="136" fill="none"/>
  </g>
  <g filter="url(#svg961f0b9e-soft-shadow)">
    <rect id="ITEM_3_BG" x="150" y="610" width="470" height="270" rx="26" fill="var(--panel)" fill-opacity="0.97" stroke="var(--accent-3)" stroke-width="3"/>
    <rect x="150" y="610" width="470" height="16" rx="8" fill="var(--accent-3)" fill-opacity="0.55"/>
    <rect x="280" y="646" width="260" height="26" rx="13" fill="var(--accent-3)" fill-opacity="0.12"/>
    <circle id="ITEM_3_PAD" cx="228" cy="692" r="46" fill="var(--icon-pad-bg)" opacity="0.95" fill-opacity="0.9" stroke-width="2" stroke="var(--primary-text)"/>
    <circle id="ITEM_3_PAD_INNER" cx="228" cy="692" r="35.88" fill="var(--accent-4)" fill-opacity="0.22"/>
    <circle cx="228" cy="692" r="37" fill="none" stroke="var(--accent-3)" stroke-width="3" stroke-dasharray="6 4"/>
    <g id="ITEM_3_ICON" transform="translate(194, 658)" data-icon-size="68" stroke-dasharray="6 4">
      <g transform="translate(-8.524444444444446,-7.195555555555559) scale(0.33222222222222225)" vector-effect="non-scaling-stroke" stroke-width="2.53" stroke-linecap="round" stroke-linejoin="round" stroke-opacity="1.0">
        <line x1="96" y1="128" x2="160" y2="128" fill="none" stroke="#f1f5f9" vector-effect="non-scaling-stroke"/>
        <line x1="96" y1="160" x2="160" y2="160" fill="none" stroke="#f1f5f9" vector-effect="non-scaling-stroke"/>
        <path d="M48,40H208a0,0,0,0,1,0,0V200a24,24,0,0,1-24,24H72a24,24,0,0,1-24-24V40A0,0,0,0,1,48,40Z" fill="none" stroke="#f1f5f9" vector-effect="non-scaling-stroke"/>
        <line x1="80" y1="24" x2="80" y2="56" fill="none" stroke="#f1f5f9" vector-effect="non-scaling-stroke"/>
        <line x1="128" y1="24" x2="128" y2="56" fill="none" stroke="#f1f5f9" vector-effect="non-scaling-stroke"/>
        <line x1="176" y1="24" x2="176" y2="56" fill="none" stroke="#f1f5f9" vector-effect="non-scaling-stroke"/>
      </g>
    </g>
    <rect id="ITEM_3_TEXT_BG" x="294.0" y="690.0" width="300.0" height="186.0" rx="22" fill="var(--panel)" fill-opacity="0.94" stroke="var(--primary-text)" stroke-opacity="0.12" stroke-width="1.5"/>
    <rect id="COMPARISON_COLUMNS_ART_PANEL_SHEEN_3" x="294.0" y="690.0" width="300.0" height="186.0" rx="16" fill="var(--accent-4)" opacity="0.82" fill-opacity="1.0"/>
    <text id="ITEM_3_HEAD" x="444.0" y="706.0" text-anchor="middle" font-size="28" font-weight="800" fill="var(--primary-text)" data-bg-id="ITEM_3_TEXT_BG" fill-opacity="1.0" style="font-size: 27px; font-family: Inter, Segoe UI, Kalam, Roboto, Helvetica, Arial, sans-serif; font-weight: 700; letter-spacing:-0.4px;" data-final-font-size="27">
      <tspan x="444.0" dy="35.84px">Contemporaneous Records</tspan>
    </text>
    <rect id="ITEM_3_HEAD_FRAME" x="310" y="706" width="268" height="48" fill="none"/>
    <text id="ITEM_3_BODY" x="444.0" y="754.0" text-anchor="middle" font-size="18" fill="var(--primary-text)" data-bg-id="ITEM_3_TEXT_BG" style="font-size: 26px; font-family: Inter, Segoe UI, Kalam, Roboto, Helvetica, Arial, sans-serif; font-weight: 400;" data-final-font-size="26">
      <tspan x="444.0" dy="31.63px">Reliable data captured</tspan>
      <tspan x="444.0" dy="29.90px">immediately at the</tspan>
      <tspan x="444.0" dy="29.90px">recovery site</tspan>
    </text>
    <rect id="ITEM_3_BODY_FRAME" x="304" y="754" width="280" height="116" fill="none"/>
  </g>
  <g filter="url(#svg961f0b9e-soft-shadow)">
    <rect id="ITEM_4_BG" x="725" y="610" width="470" height="270" rx="26" fill="var(--panel)" fill-opacity="0.97" stroke="var(--accent-4)" stroke-width="3"/>
    <rect x="725" y="610" width="470" height="16" rx="8" fill="var(--accent-4)" fill-opacity="0.55"/>
    <rect x="855" y="646" width="260" height="26" rx="13" fill="var(--accent-4)" fill-opacity="0.12"/>
    <circle id="ITEM_4_PAD" cx="803" cy="692" r="46" fill="var(--icon-pad-bg)" opacity="0.95" fill-opacity="0.9" stroke-width="2" stroke="var(--primary-text)"/>
    <circle id="ITEM_4_PAD_INNER" cx="803" cy="692" r="35.88" fill="var(--accent-5)" fill-opacity="0.22"/>
    <circle cx="803" cy="692" r="37" fill="none" stroke="var(--accent-4)" stroke-width="3" stroke-dasharray="6 4"/>
    <g id="ITEM_4_ICON" transform="translate(769, 658)" data-icon-size="68" stroke-dasharray="6 4">
      <g transform="translate(-4.920677966101698,-4.920677966101698) scale(3.243389830508475)" vector-effect="non-scaling-stroke" stroke-width="2.53" stroke-linecap="round" stroke-linejoin="round" stroke-opacity="1.0">
        <path d="M12 6v6l4 2" vector-effect="non-scaling-stroke" fill="none" stroke="#f1f5f9"/>
        <circle cx="12" cy="12" r="10" vector-effect="non-scaling-stroke" fill="none" stroke="#f1f5f9"/>
      </g>
    </g>
    <rect id="ITEM_4_TEXT_BG" x="869.0" y="690.0" width="300.0" height="186.0" rx="22" fill="var(--panel)" fill-opacity="0.94" stroke="var(--primary-text)" stroke-opacity="0.12" stroke-width="1.5"/>
    <rect id="COMPARISON_COLUMNS_ART_PANEL_SHEEN_4" x="869.0" y="690.0" width="300.0" height="186.0" rx="16" fill="var(--accent-5)" opacity="0.82" fill-opacity="1.0"/>
    <text id="ITEM_4_HEAD" x="1019.0" y="706.0" text-anchor="middle" font-size="28" font-weight="800" fill="var(--primary-text)" data-bg-id="ITEM_4_TEXT_BG" fill-opacity="1.0" style="font-size: 30px; font-family: Inter, Segoe UI, Kalam, Roboto, Helvetica, Arial, sans-serif; font-weight: 700; letter-spacing:-0.4px;" data-final-font-size="30">
      <tspan x="1019.0" dy="38.01px">Delayed Testimony</tspan>
    </text>
    <rect id="ITEM_4_HEAD_FRAME" x="885" y="706" width="268" height="48" fill="none"/>
    <text id="ITEM_4_BODY" x="1019.0" y="754.0" text-anchor="middle" font-size="18" fill="var(--primary-text)" data-bg-id="ITEM_4_TEXT_BG" style="font-size: 26px; font-family: Inter, Segoe UI, Kalam, Roboto, Helvetica, Arial, sans-serif; font-weight: 400;" data-final-font-size="26">
      <tspan x="1019.0" dy="37.61px">Unreliable data prone</tspan>
      <tspan x="1019.0" dy="29.90px">to memory decay over time</tspan>
    </text>
    <rect id="ITEM_4_BODY_FRAME" x="879" y="754" width="280" height="116" fill="none"/>
  </g>
  <g filter="url(#svg961f0b9e-soft-shadow)">
    <rect id="ITEM_5_BG" x="1300" y="610" width="470" height="270" rx="26" fill="var(--panel)" fill-opacity="0.97" stroke="var(--accent-5)" stroke-width="3"/>
    <rect x="1300" y="610" width="470" height="16" rx="8" fill="var(--accent-5)" fill-opacity="0.55"/>
    <rect x="1430" y="646" width="260" height="26" rx="13" fill="var(--accent-5)" fill-opacity="0.12"/>
    <circle id="ITEM_5_PAD" cx="1378" cy="692" r="46" fill="var(--icon-pad-bg)" opacity="0.95" fill-opacity="0.9" stroke-width="2" stroke="var(--primary-text)"/>
    <circle id="ITEM_5_PAD_INNER" cx="1378" cy="692" r="35.88" fill="var(--accent-6)" fill-opacity="0.22"/>
    <circle cx="1378" cy="692" r="37" fill="none" stroke="var(--accent-5)" stroke-width="3" stroke-dasharray="6 4"/>
    <g id="ITEM_5_ICON" transform="translate(1344, 658)" data-icon-size="68" stroke-dasharray="6 4">
      <g transform="translate(-7.195555555555559,-12.511111111111116) scale(2.657777777777778)">
        <path d="M4.47009 10L4.86945 13.1047L4.5 15.5L5.3469 16.8165L6.77 27.88C6.85 28.52 7.38 29 8 29H24.14C24.76 29 25.29 28.52 25.37 27.88L27.5483 10L16 8L4.47009 10Z" fill="#0074BA"/>
        <path d="M4.8715 13.1206L5.34651 16.8135C5.03778 17.5423 4.77554 18.2428 4.58236 18.8988C4.16976 20.2998 4.14163 21.2752 4.40221 21.8652C4.60257 22.3188 5.10141 22.8051 6.60922 22.871C8.08469 22.9349 9.26815 22.6923 10.275 22.2216C11.2865 21.7488 12.1735 21.0204 13.0188 20.0379C14.4969 18.3196 15.7496 15.9556 17.287 13.0544L17.2876 13.0532C17.5505 12.5571 17.8218 12.0451 18.104 11.5181C18.3646 11.0311 18.9706 10.8477 19.4575 11.1084C19.9444 11.369 20.1279 11.975 19.8672 12.4619C19.5968 12.9671 19.3328 13.466 19.0731 13.9569C17.5483 16.8385 16.1724 19.4387 14.5349 21.3422C13.5564 22.4796 12.4528 23.4112 11.1221 24.0334C9.78685 24.6576 8.27634 24.9451 6.52196 24.8691C4.59477 24.7849 3.19736 24.0874 2.57272 22.6733C2.0083 21.3954 2.22642 19.819 2.66383 18.3338C3.11458 16.8032 3.87411 15.1285 4.67413 13.5158C4.73953 13.3839 4.80537 13.2522 4.8715 13.1206Z" fill="#D3D3D3"/>
        <path d="M3.35562 9.06L3.00562 6.71C2.95562 6.34 3.24562 6 3.62562 6H28.3756C28.7556 6 29.0456 6.34 28.9956 6.71L28.6356 9.06C28.5556 9.6 28.0956 10 27.5556 10H4.44562C3.89562 10 3.43562 9.6 3.35562 9.06Z" fill="#00A6ED"/>
      </g>
    </g>
    <rect id="ITEM_5_TEXT_BG" x="1444.0" y="690.0" width="300.0" height="186.0" rx="22" fill="var(--panel)" fill-opacity="0.94" stroke="var(--primary-text)" stroke-opacity="0.12" stroke-width="1.5"/>
    <rect id="COMPARISON_COLUMNS_ART_PANEL_SHEEN_5" x="1444.0" y="690.0" width="300.0" height="186.0" rx="16" fill="var(--accent-6)" opacity="0.82" fill-opacity="1.0"/>
    <text id="ITEM_5_HEAD" x="1594.0" y="706.0" text-anchor="middle" font-size="28" font-weight="800" fill="var(--primary-text)" data-bg-id="ITEM_5_TEXT_BG" fill-opacity="1.0" style="font-size: 30px; font-family: Inter, Segoe UI, Kalam, Roboto, Helvetica, Arial, sans-serif; font-weight: 700; letter-spacing:-0.4px;" data-final-font-size="30">
      <tspan x="1594.0" dy="38.01px">Environmental Samples</tspan>
    </text>
    <rect id="ITEM_5_HEAD_FRAME" x="1460" y="706" width="268" height="48" fill="none"/>
    <text id="ITEM_5_BODY" x="1594.0" y="754.0" text-anchor="middle" font-size="18" fill="var(--primary-text)" data-bg-id="ITEM_5_TEXT_BG" style="font-size: 26px; font-family: Inter, Segoe UI, Kalam, Roboto, Helvetica, Arial, sans-serif; font-weight: 400;" data-final-font-size="26">
      <tspan x="1594.0" dy="31.63px">Contextual soil and</tspan>
      <tspan x="1594.0" dy="29.90px">vegetation provide</tspan>
      <tspan x="1594.0" dy="29.90px">comparative data</tspan>
    </text>
    <rect id="ITEM_5_BODY_FRAME" x="1454" y="754" width="280" height="116" fill="none"/>
  </g>
</svg>
