<?xml version='1.0' encoding='utf-8'?>
<svg xmlns="http://www.w3.org/2000/svg" width="1920" height="1080" viewBox="0 0 1920 1080" data-theme="light">
  <style>
        @font-face {
            font-family: 'Inter';
            src: url('assets/fonts/Inter-Regular.ttf') format('truetype');
            font-weight: 400;
            font-style: normal;
            font-display: swap;
        }
        @font-face {
            font-family: 'Inter';
            src: url('assets/fonts/Inter-Bold.ttf') format('truetype');
            font-weight: 600;
            font-style: normal;
            font-display: swap;
        }
        @font-face {
            font-family: 'Inter';
            src: url('assets/fonts/Inter-Bold.ttf') format('truetype');
            font-weight: 800;
            font-style: normal;
            font-display: swap;
        }
        
:root {
    --background: #f8fafc;
    --panel: #ffffff;
    --primary-text: #0f172a;
    --muted-text: #64748b;
    --inverse-text: #ffffff;
    --border: #e2e8f0;
    --shadow-color: #000000;
    --icon-pad-bg: #1e293b;
    --art-glow: #0891b2;
    --art-glow-opacity: 0.10;
    --art-sheen: #ffffff;
    --art-sheen-opacity: 0.34;
    --art-shadow: #0f172a;
    --art-shadow-opacity: 0.14;
    --art-muted-line: #94a3b8;
    --art-panel-tint: #f1f5f9;
    --font-family: 'Inter', 'Segoe UI', 'Kalam', Roboto, Helvetica, Arial, sans-serif;
    --radius-xl: 16px;
    --font-family-headline: 'Inter', 'Segoe UI', 'Kalam', Roboto, Helvetica, Arial, sans-serif;
    --font-family-body: 'Inter', 'Segoe UI', 'Kalam', Roboto, Helvetica, Arial, sans-serif;
    --font-heading: 'Inter', 'Segoe UI', 'Kalam', Roboto, Helvetica, Arial, sans-serif;
    --font-body: 'Inter', 'Segoe UI', 'Kalam', Roboto, Helvetica, Arial, sans-serif;
    --font-size-h1: 56px;
    --font-size-h2: 40px;
    --font-size-h3: 28px;
    --font-size-body: 24px;
    --font-size-caption: 18px;
    --secondary-text: var(--muted-text);
    --panel-border: var(--border);
    --font-weight-normal: 400;
    --font-weight-medium: 500;
    --font-weight-semibold: 600;
    --font-weight-bold: 700;
    --spacing-gutter-pct: 0.07;
    --spacing-top-pct: 0.15;
    --spacing-bottom-pct: 0.07;
    --spacing-title-y-pct: 0.055;
    --accent-1: #0891b2;
    --accent-2: #0284c7;
    --accent-3: #2563eb;
    --accent-4: #4f46e5;
    --accent-5: #7c3aed;
    --accent-6: #0d9488;
}
:root[data-theme="dark"] {
    --background: #0f172a;
    --panel: #1e293b;
    --primary-text: #f1f5f9;
    --muted-text: #94a3b8;
    --inverse-text: #0f172a;
    --border: #334155;
    --shadow-color: #000000;
    --icon-pad-bg: #1e293b;
    --art-glow: #7dd3fc;
    --art-glow-opacity: 0.18;
    --art-sheen: #ffffff;
    --art-sheen-opacity: 0.18;
    --art-shadow: #000000;
    --art-shadow-opacity: 0.28;
    --art-muted-line: #64748b;
    --art-panel-tint: #1e293b;
    --accent-1: #22d3ee;
    --accent-2: #38bdf8;
    --accent-3: #60a5fa;
    --accent-4: #818cf8;
    --accent-5: #a78bfa;
    --accent-6: #2dd4bf;
}
:root[data-theme="light"] {
    --background: #f8fafc;
    --panel: #ffffff;
    --primary-text: #0f172a;
    --muted-text: #64748b;
    --inverse-text: #ffffff;
    --border: #e2e8f0;
    --shadow-color: #000000;
    --icon-pad-bg: #1e293b;
    --art-glow: #0891b2;
    --art-glow-opacity: 0.10;
    --art-sheen: #ffffff;
    --art-sheen-opacity: 0.34;
    --art-shadow: #0f172a;
    --art-shadow-opacity: 0.14;
    --art-muted-line: #94a3b8;
    --art-panel-tint: #f1f5f9;
    --accent-1: #0891b2;
    --accent-2: #0284c7;
    --accent-3: #2563eb;
    --accent-4: #4f46e5;
    --accent-5: #7c3aed;
    --accent-6: #0d9488;
}</style>
  <rect x="0" y="0" width="1.92E+3" height="1.08E+3" fill="#252a34" stroke="none" id="programmatic_background"/>
  <line id="HEADER_DECOR" x1="960.0" x2="1080.0" y1="135.0" y2="135.0" stroke="var(--accent-1)" stroke-width="6" stroke-linecap="round"/>
  <defs>
    <pattern id="svg9e00a9a7-napkin-hatch" patternUnits="userSpaceOnUse" width="12" height="12">
      <path d="M -3 12 L 12 -3 M 0 15 L 15 0" fill="none" stroke="var(--primary-text)" stroke-width="1" stroke-opacity="0.05"/>
    </pattern>
    <filter id="svg9e00a9a7-shadow" x="-30%" y="-30%" width="160%" height="160%">
      <feDropShadow dx="0" dy="2" stdDeviation="3" flood-color="#000000" flood-opacity="0.08"/>
      <feDropShadow dx="0" dy="6" stdDeviation="10" flood-color="#000000" flood-opacity="0.12"/>
    </filter>
    <marker id="svg9e00a9a7-arrowhead" markerWidth="10" markerHeight="10" refX="9" refY="5" orient="auto">
      <path d="M 0 0 L 10 5 L 0 10 Z" fill="var(--accent-1)"/>
    </marker>
    <filter id="svg9e00a9a7-text-glow" x="-20%" y="-20%" width="140%" height="140%">
      <feDropShadow dx="0" dy="0" stdDeviation="2" flood-color="#000000" flood-opacity="0.4"/>
    </filter>
    <radialGradient id="svg9e00a9a7-universal-edge-vignette" cx="50%" cy="50%" r="72%">
      <stop offset="0%" stop-color="var(--background)" stop-opacity="0"/>
      <stop offset="72%" stop-color="var(--background)" stop-opacity="0.12"/>
      <stop offset="100%" stop-color="var(--primary-text)" stop-opacity="0.08"/>
    </radialGradient>
    <linearGradient id="svg9e00a9a7-universal-surface-sheen" x1="0%" y1="0%" x2="100%" y2="100%">
      <stop offset="0%" stop-color="var(--art-sheen)" stop-opacity="var(--art-sheen-opacity)"/>
      <stop offset="46%" stop-color="var(--art-sheen)" stop-opacity="0.035"/>
      <stop offset="100%" stop-color="var(--art-panel-tint)" stop-opacity="0.14"/>
    </linearGradient>
    <radialGradient id="svg9e00a9a7-universal-icon-aura" cx="50%" cy="42%" r="64%">
      <stop offset="0%" stop-color="var(--art-glow)" stop-opacity="var(--art-glow-opacity)"/>
      <stop offset="100%" stop-color="var(--background)" stop-opacity="0"/>
    </radialGradient>
    <linearGradient id="svg9e00a9a7-myth-card-sheen" x1="0%" y1="0%" x2="100%" y2="100%">
      <stop offset="0%" stop-color="var(--inverse-text)" stop-opacity="0.18"/>
      <stop offset="56%" stop-color="var(--inverse-text)" stop-opacity="0.03"/>
      <stop offset="100%" stop-color="var(--background)" stop-opacity="0.12"/>
    </linearGradient>
  </defs>
  <rect width="100%" height="100%" fill="var(--background)" id="CANVAS_BG"/>
  <rect width="100%" height="100%" fill="url(#svg9e00a9a7-napkin-hatch)"/>
  <rect id="UNIVERSAL_EDGE_VIGNETTE" width="100%" height="100%" fill="url(#svg9e00a9a7-universal-edge-vignette)" opacity="0.62"/>
  <text id="TITLE" x="960.0" y="59" text-anchor="middle" font-weight="800" font-size="56" fill="#0f172a" style="font-size: 60px; font-family: Inter, Segoe UI, Kalam, Roboto, Helvetica, Arial, sans-serif; font-weight: 700; letter-spacing:-1.2px;" data-final-font-size="60">
    <tspan x="960.0" dy="68.00px">Impact of Missing Metadata</tspan>
  </text>
  <rect id="TITLE_FRAME" x="134" y="59" width="1652" height="103" fill="none"/>
  <g transform="translate(0, 190) scale(1.0)">
    <path d="M 920 -8 C 950 80 950 720 920 808" stroke="var(--primary-text)" stroke-width="2" stroke-opacity="0.10" fill="none"/>
    <path d="M 1000 -8 C 970 80 970 720 1000 808" stroke="var(--primary-text)" stroke-width="2" stroke-opacity="0.10" fill="none"/>
    <text x="480.0" y="0" text-anchor="middle" font-weight="900" font-size="52" fill="var(--accent-1)">MYTHS</text>
    <text x="1440.0" y="0" text-anchor="middle" font-weight="900" font-size="52" fill="var(--accent-2)">REALITY</text>
    <!-- Row 1 - cards at y=130 -->
    <g transform="translate(480.0, 130.0)">
      <rect id="ITEM_1_ACCENT_BG" x="-400" y="-110" width="800" height="245" rx="24" fill="var(--accent-6)" fill-opacity="1.0"/>
      <rect id="ITEM_1_BG" x="-400" y="-110" width="800" height="245" rx="18" fill="var(--panel)" stroke="var(--accent-1)" filter="url(#svg9e00a9a7-shadow)" stroke-width="3"/>
      <rect x="-388" y="-98" width="776" height="221" rx="16" fill="url(#svg9e00a9a7-myth-card-sheen)" opacity="0.92"/>
      <circle id="ITEM_1_PAD" cx="-330" cy="-40" r="46" fill="var(--icon-pad-bg)" stroke="var(--background)" stroke-width="2" stroke-opacity="0.65" opacity="0.94" fill-opacity="0.9"/>
      <circle id="ITEM_1_PAD_INNER" cx="-330" cy="-40" r="35.88" fill="var(--accent-6)" fill-opacity="0.22"/>
      <circle cx="-330" cy="-40" r="34" fill="none" stroke="var(--accent-1)" stroke-width="3" stroke-dasharray="6 4"/>
      <g id="ITEM_1_ICON" transform="translate(-358, -68)" data-icon-size="56" stroke-dasharray="6 4">
        <g transform="translate(-7.880000000000003,-7.880000000000003) scale(5.125714285714286)" vector-effect="non-scaling-stroke" stroke-width="2.38" stroke-linecap="round" stroke-linejoin="round" stroke-opacity="1.0">
          <path id="Vector" fill="none" d="M6 11.5a5.5 5.5 0 1 0 0 -11 5.5 5.5 0 0 0 0 11Z" vector-effect="non-scaling-stroke" stroke="#f1f5f9"/>
          <path id="Vector_2" stroke="#f1f5f9" d="M6 11.5a5.5 5.5 0 1 0 0 -11 5.5 5.5 0 0 0 0 11Z" vector-effect="non-scaling-stroke" fill="none"/>
          <path id="Vector_3" stroke="#f1f5f9" d="M13.5 13.5 10 10" vector-effect="non-scaling-stroke" fill="none"/>
        </g>
      </g>
      <text id="ITEM_1_HEAD" x="0.0" y="-85.0" text-anchor="middle" font-weight="bold" font-size="28" fill="var(--primary-text)" data-bg-id="ITEM_1_BG" fill-opacity="1.0" style="font-size: 30px; font-family: Inter, Segoe UI, Kalam, Roboto, Helvetica, Arial, sans-serif; font-weight: 700; letter-spacing:-0.4px;" data-final-font-size="30">
        <tspan x="0.0" dy="37.75px">Vague Location</tspan>
      </text>
      <rect id="ITEM_1_HEAD_FRAME" x="-310" y="-85" width="620" height="50" fill="none"/>
      <text id="ITEM_1_BODY" x="0.0" y="-20.0" text-anchor="middle" font-size="22" fill="var(--primary-text)" opacity="0.88" data-bg-id="ITEM_1_BG" style="font-size: 26px; font-family: Inter, Segoe UI, Kalam, Roboto, Helvetica, Arial, sans-serif; font-weight: 400;" data-final-font-size="26">
        <tspan x="0.0" dy="45.42px">Prevents comparison against known aviation</tspan>
        <tspan x="0.0" dy="29.90px">or meteor events</tspan>
      </text>
      <rect id="ITEM_1_BODY_FRAME" x="-310" y="-20" width="620" height="155" fill="none"/>
    </g>
    <g transform="translate(1440.0, 130.0)">
      <rect id="ITEM_2_ACCENT_BG" x="-400" y="-110" width="800" height="245" rx="24" fill="var(--accent-2)" fill-opacity="1.0"/>
      <rect id="ITEM_2_BG" x="-400" y="-110" width="800" height="245" rx="18" fill="var(--panel)" stroke="var(--accent-2)" filter="url(#svg9e00a9a7-shadow)" stroke-width="3"/>
      <rect x="-388" y="-98" width="776" height="221" rx="16" fill="url(#svg9e00a9a7-myth-card-sheen)" opacity="0.92"/>
      <circle id="ITEM_2_PAD" cx="330" cy="-40" r="46" fill="var(--icon-pad-bg)" stroke="var(--background)" stroke-width="2" stroke-opacity="0.65" opacity="0.94" fill-opacity="0.9"/>
      <circle id="ITEM_2_PAD_INNER" cx="330" cy="-40" r="35.88" fill="var(--accent-2)" fill-opacity="0.22"/>
      <circle cx="330" cy="-40" r="34" fill="none" stroke="var(--accent-2)" stroke-width="3" stroke-dasharray="6 4"/>
      <g id="ITEM_2_ICON" transform="translate(302, -68)" data-icon-size="56" stroke-dasharray="6 4">
        <g transform="translate(-13.005714285714289,-13.005714285714289) scale(2.562857142857143)">
          <path d="M2 9.00001L15.2666 6.15716C15.7501 6.05357 16.2499 6.05357 16.7334 6.15716L30 9.00001V24.8C30 27.6719 27.6719 30 24.8 30H7.2C4.32812 30 2 27.6719 2 24.8V9.00001Z" fill="#B4ACBC"/>
          <path d="M3 8.00005L15.213 5.18167C15.7309 5.06216 16.2691 5.06216 16.787 5.18167L29 8.00005V24.5001C29 26.9853 26.9853 29.0001 24.5 29.0001H7.5C5.01472 29.0001 3 26.9853 3 24.5001V8.00005Z" fill="#F3EEF8"/>
          <path d="M7.9998 12C7.88935 12 7.7998 12.0895 7.7998 12.2V14.8C7.7998 14.9105 7.88935 15 7.9998 15H10.7998C10.9103 15 10.9998 14.9105 10.9998 14.8V12.2C10.9998 12.0895 10.9103 12 10.7998 12H7.9998Z" fill="#998EA4"/>
          <path d="M7.9998 17.5C7.88935 17.5 7.7998 17.5895 7.7998 17.7V20.3C7.7998 20.4105 7.88935 20.5 7.9998 20.5H10.7998C10.9103 20.5 10.9998 20.4105 10.9998 20.3V17.7C10.9998 17.5895 10.9103 17.5 10.7998 17.5H7.9998Z" fill="#998EA4"/>
          <path d="M7.7998 23.1C7.7998 22.9896 7.88935 22.9 7.9998 22.9H10.7998C10.9103 22.9 10.9998 22.9896 10.9998 23.1V25.7C10.9998 25.8105 10.9103 25.9 10.7998 25.9H7.9998C7.88935 25.9 7.7998 25.8105 7.7998 25.7V23.1Z" fill="#998EA4"/>
          <path d="M14.5998 12C14.4893 12 14.3998 12.0895 14.3998 12.2V14.8C14.3998 14.9105 14.4893 15 14.5998 15H17.3998C17.5102 15 17.5998 14.9105 17.5998 14.8V12.2C17.5998 12.0895 17.5102 12 17.3998 12H14.5998Z" fill="#998EA4"/>
          <path d="M14.3998 17.7C14.3998 17.5895 14.4893 17.5 14.5998 17.5H17.3998C17.5102 17.5 17.5998 17.5895 17.5998 17.7V20.3C17.5998 20.4105 17.5102 20.5 17.3998 20.5H14.5998C14.4893 20.5 14.3998 20.4105 14.3998 20.3V17.7Z" fill="#998EA4"/>
          <path d="M14.5998 22.9C14.4893 22.9 14.3998 22.9896 14.3998 23.1V25.7C14.3998 25.8105 14.4893 25.9 14.5998 25.9H17.3998C17.5102 25.9 17.5998 25.8105 17.5998 25.7V23.1C17.5998 22.9896 17.5102 22.9 17.3998 22.9H14.5998Z" fill="#998EA4"/>
          <path d="M20.9998 12.2C20.9998 12.0895 21.0894 12 21.1998 12H23.9998C24.1103 12 24.1998 12.0895 24.1998 12.2V14.8C24.1998 14.9105 24.1103 15 23.9998 15H21.1998C21.0894 15 20.9998 14.9105 20.9998 14.8V12.2Z" fill="#998EA4"/>
          <path d="M21.1998 22.9C21.0894 22.9 20.9998 22.9896 20.9998 23.1V25.7C20.9998 25.8105 21.0894 25.9 21.1998 25.9H23.9998C24.1103 25.9 24.1998 25.8105 24.1998 25.7V23.1C24.1998 22.9896 24.1103 22.9 23.9998 22.9H21.1998Z" fill="#998EA4"/>
          <path d="M7.2 2C4.32812 2 2 4.32812 2 7.2V9H30V7.2C30 4.32812 27.6719 2 24.8 2H7.2Z" fill="#0084CE"/>
          <path d="M21.2 17.5C21.0895 17.5 21 17.5895 21 17.7V20.3C21 20.4105 21.0895 20.5 21.2 20.5H24C24.1105 20.5 24.2 20.4105 24.2 20.3V17.7C24.2 17.5895 24.1105 17.5 24 17.5H21.2Z" fill="#0084CE"/>
        </g>
      </g>
      <text id="ITEM_2_HEAD" x="0.0" y="-85.0" text-anchor="middle" font-weight="bold" font-size="28" fill="var(--primary-text)" data-bg-id="ITEM_2_BG" fill-opacity="1.0" style="font-size: 30px; font-family: Inter, Segoe UI, Kalam, Roboto, Helvetica, Arial, sans-serif; font-weight: 700; letter-spacing:-0.4px;" data-final-font-size="30">
        <tspan x="0.0" dy="37.75px">Missing Dates</tspan>
      </text>
      <rect id="ITEM_2_HEAD_FRAME" x="-310" y="-85" width="620" height="50" fill="none"/>
      <text id="ITEM_2_BODY" x="0.0" y="-20.0" text-anchor="middle" font-size="22" fill="var(--primary-text)" opacity="0.88" data-bg-id="ITEM_2_BG" style="font-size: 26px; font-family: Inter, Segoe UI, Kalam, Roboto, Helvetica, Arial, sans-serif; font-weight: 400;" data-final-font-size="26">
        <tspan x="0.0" dy="51.40px">Makes it impossible to link debris to specific logs</tspan>
      </text>
      <rect id="ITEM_2_BODY_FRAME" x="-310" y="-20" width="620" height="155" fill="none"/>
    </g>
    <!-- Row 2 - cards at y=400 -->
    <g transform="translate(480.0, 400.0)">
      <rect id="ITEM_3_ACCENT_BG" x="-400" y="-110" width="800" height="245" rx="24" fill="var(--accent-3)" fill-opacity="0.15"/>
      <rect id="ITEM_3_BG" x="-400" y="-110" width="800" height="245" rx="18" fill="var(--panel)" stroke="var(--accent-3)" filter="url(#svg9e00a9a7-shadow)" stroke-width="3"/>
      <rect x="-388" y="-98" width="776" height="221" rx="16" fill="url(#svg9e00a9a7-myth-card-sheen)" opacity="0.92"/>
      <circle id="ITEM_3_PAD" cx="-330" cy="-40" r="46" fill="var(--icon-pad-bg)" stroke="var(--background)" stroke-width="2" stroke-opacity="0.65" opacity="0.94"/>
      <circle id="ITEM_3_PAD_INNER" cx="-330" cy="-40" r="35.88" fill="var(--accent-3)" fill-opacity="0.22"/>
      <circle cx="-330" cy="-40" r="34" fill="none" stroke="var(--accent-3)" stroke-width="3" stroke-dasharray="6 4"/>
      <g id="ITEM_3_ICON" transform="translate(-358, -68)" data-icon-size="56" stroke-dasharray="6 4">
        <g transform="translate(-14.52444444444445,-14.524444444444448) scale(3.543703703703704)" vector-effect="non-scaling-stroke" stroke-width="2.38" stroke-linecap="round" stroke-linejoin="round" stroke-opacity="1.0">
          <path d="M14 3v4a1 1 0 0 0 1 1h4" vector-effect="non-scaling-stroke" fill="none" stroke="#f1f5f9"/>
          <path d="M17 21h-10a2 2 0 0 1 -2 -2v-14a2 2 0 0 1 2 -2h7l5 5v11a2 2 0 0 1 -2 2z" vector-effect="non-scaling-stroke" fill="none" stroke="#f1f5f9"/>
          <path d="M12 17v.01" vector-effect="non-scaling-stroke" fill="none" stroke="#f1f5f9"/>
          <path d="M12 14a1.5 1.5 0 1 0 -1.14 -2.474" vector-effect="non-scaling-stroke" fill="none" stroke="#f1f5f9"/>
        </g>
      </g>
      <text id="ITEM_3_HEAD" x="0.0" y="-85.0" text-anchor="middle" font-weight="bold" font-size="28" fill="var(--accent-3)" data-bg-id="ITEM_3_BG" style="font-size: 30px; font-family: Inter, Segoe UI, Kalam, Roboto, Helvetica, Arial, sans-serif; font-weight: 700; letter-spacing:-0.4px;" data-final-font-size="30">
        <tspan x="0.0" dy="37.75px">Unknown Collector</tspan>
      </text>
      <rect id="ITEM_3_HEAD_FRAME" x="-310" y="-85" width="620" height="50" fill="none"/>
      <text id="ITEM_3_BODY" x="0.0" y="-20.0" text-anchor="middle" font-size="22" fill="var(--primary-text)" opacity="0.88" data-bg-id="ITEM_3_BG" style="font-size: 26px; font-family: Inter, Segoe UI, Kalam, Roboto, Helvetica, Arial, sans-serif; font-weight: 400;" data-final-font-size="26">
        <tspan x="0.0" dy="51.40px">Breaks the first link in the evidence chain</tspan>
      </text>
      <rect id="ITEM_3_BODY_FRAME" x="-310" y="-20" width="620" height="155" fill="none"/>
    </g>
    <g transform="translate(1440.0, 400.0)">
      <rect id="ITEM_4_ACCENT_BG" x="-400" y="-110" width="800" height="245" rx="24" fill="var(--accent-4)" fill-opacity="0.15"/>
      <rect id="ITEM_4_BG" x="-400" y="-110" width="800" height="245" rx="18" fill="var(--panel)" stroke="var(--accent-4)" filter="url(#svg9e00a9a7-shadow)" stroke-width="3"/>
      <rect x="-388" y="-98" width="776" height="221" rx="16" fill="url(#svg9e00a9a7-myth-card-sheen)" opacity="0.92"/>
      <circle id="ITEM_4_PAD" cx="330" cy="-40" r="46" fill="var(--icon-pad-bg)" stroke="var(--background)" stroke-width="2" stroke-opacity="0.65" opacity="0.94"/>
      <circle id="ITEM_4_PAD_INNER" cx="330" cy="-40" r="35.88" fill="var(--accent-4)" fill-opacity="0.22"/>
      <circle cx="330" cy="-40" r="34" fill="none" stroke="var(--accent-4)" stroke-width="3" stroke-dasharray="6 4"/>
      <g id="ITEM_4_ICON" transform="translate(302, -68)" data-icon-size="56" stroke-dasharray="6 4">
        <g transform="translate(-11.372743362831864,-12.960353982300887) scale(2.540176991150443)">
          <path d="M26.1483 9.05392C25.3583 8.64392 24.3983 8.95392 23.9883 9.74392L22.1583 13.3639L21.4883 10.6839C21.4783 10.6039 21.4683 10.5239 21.4483 10.4439L19.6883 3.88392C19.4683 3.05392 18.6283 2.49392 17.7883 2.69392C16.9183 2.90392 16.3983 3.78392 16.6283 4.63392L18.1983 10.4839L17.7983 10.6239L15.5683 3.18392C15.3183 2.35392 14.4683 1.82392 13.6283 2.05392C12.7683 2.28392 12.2683 3.18392 12.5283 4.03392L14.8183 11.6639L14.5183 11.7639L11.9783 5.10392C11.6683 4.29392 10.7883 3.82392 9.96834 4.10392C9.12834 4.39392 8.68834 5.32392 9.00834 6.15392L11.5183 12.7739L11.0783 12.9239L9.15834 8.41392C8.81834 7.61392 7.88834 7.24392 7.08834 7.58392C6.28834 7.92392 5.91834 8.85392 6.25834 9.65392L8.09834 13.9739L10.6683 21.2639L10.6883 21.2539L12.8283 27.3239C13.2783 28.6139 14.6883 29.2839 15.9783 28.8339L24.8683 25.7039C26.1583 25.2539 26.8283 23.8439 26.3783 22.5539L24.7383 17.9139C24.7683 17.6639 24.7883 17.4139 24.8083 17.1639C24.9083 15.7639 25.6383 13.9239 26.8483 11.2239C27.1983 10.4039 26.9383 9.46392 26.1483 9.05392Z" fill="#6B438B"/>
          <path d="M23.9883 9.37392C23.1783 9.01392 22.2283 9.38392 21.8783 10.1939L20.2783 13.9239L19.4383 11.2839C19.4283 11.2039 19.4083 11.1239 19.3783 11.0439L17.2083 4.61392C16.9283 3.79392 16.0583 3.29392 15.2383 3.54392C14.3783 3.80392 13.9183 4.71392 14.1983 5.55392L16.1383 11.2939L15.7383 11.4639L13.0383 4.17392C12.7383 3.36392 11.8483 2.89392 11.0383 3.16392C10.1783 3.44392 9.74831 4.37392 10.0483 5.20392L12.8183 12.6739L12.5183 12.7939L9.59831 6.32392C9.23831 5.53392 8.32831 5.12392 7.52831 5.45392C6.69831 5.80392 6.32831 6.75392 6.69831 7.56392L9.61831 14.0139L9.18831 14.1939L6.98831 9.80392C6.59831 9.03392 5.64831 8.72392 4.86831 9.11392C4.08831 9.50392 3.77831 10.4539 4.16831 11.2339L6.26831 15.4239L9.29831 22.5439L9.31831 22.5339L11.8383 28.4539C12.3683 29.7039 13.8183 30.2939 15.0783 29.7639L23.7583 26.0739C25.0083 25.5439 25.5983 24.0939 25.0683 22.8339L23.1383 18.3039C23.1483 18.0539 23.1583 17.8039 23.1583 17.5439C23.1683 16.1339 23.7783 14.2639 24.8183 11.4839C25.1183 10.6539 24.7983 9.73392 23.9883 9.37392Z" fill="#B859D3"/>
          <path d="M22.8443 21.7543L24.3245 21.125L23.992 20.3428L10.772 25.9628L11.1045 26.745L12.581 26.1174L14.2669 30.0997L15.0496 29.7683L13.3632 25.7848L14.4742 25.3125L16.1673 29.2903L16.9494 28.9574L15.2564 24.98L16.3716 24.5059L18.0673 28.4806L18.8491 28.1471L17.1539 24.1734L18.272 23.698L19.9671 27.6804L20.7492 27.3475L19.0543 23.3655L20.1722 22.8902L21.8568 26.8696L22.6396 26.5382L20.9545 22.5577L22.0621 22.0868L23.7573 26.0607L24.5392 25.7272L22.8443 21.7543Z" fill="#8C42B3"/>
        </g>
      </g>
      <text id="ITEM_4_HEAD" x="0.0" y="-85.0" text-anchor="middle" font-weight="bold" font-size="28" fill="var(--accent-4)" data-bg-id="ITEM_4_BG" style="font-size: 30px; font-family: Inter, Segoe UI, Kalam, Roboto, Helvetica, Arial, sans-serif; font-weight: 700; letter-spacing:-0.4px;" data-final-font-size="30">
        <tspan x="0.0" dy="37.75px">Contamination Risk</tspan>
      </text>
      <rect id="ITEM_4_HEAD_FRAME" x="-310" y="-85" width="620" height="50" fill="none"/>
      <text id="ITEM_4_BODY" x="0.0" y="-20.0" text-anchor="middle" font-size="22" fill="var(--primary-text)" opacity="0.88" data-bg-id="ITEM_4_BG" style="font-size: 26px; font-family: Inter, Segoe UI, Kalam, Roboto, Helvetica, Arial, sans-serif; font-weight: 400;" data-final-font-size="26">
        <tspan x="0.0" dy="45.42px">Unrecorded handling introduces foreign materials</tspan>
        <tspan x="0.0" dy="29.90px">into the sample</tspan>
      </text>
      <rect id="ITEM_4_BODY_FRAME" x="-310" y="-20" width="620" height="155" fill="none"/>
    </g>
    <!-- Row 3 - cards at y=670 -->
    <g transform="translate(480.0, 670.0)">
      <rect id="ITEM_5_ACCENT_BG" x="-400" y="-110" width="800" height="245" rx="24" fill="var(--accent-5)" fill-opacity="0.15"/>
      <rect id="ITEM_5_BG" x="-400" y="-110" width="800" height="245" rx="18" fill="var(--panel)" stroke="var(--accent-5)" filter="url(#svg9e00a9a7-shadow)" stroke-width="3"/>
      <rect x="-388" y="-98" width="776" height="221" rx="16" fill="url(#svg9e00a9a7-myth-card-sheen)" opacity="0.92"/>
      <circle id="ITEM_5_PAD" cx="-330" cy="-40" r="46" fill="var(--icon-pad-bg)" stroke="var(--background)" stroke-width="2" stroke-opacity="0.65" opacity="0.94"/>
      <circle id="ITEM_5_PAD_INNER" cx="-330" cy="-40" r="35.88" fill="var(--accent-5)" fill-opacity="0.22"/>
      <circle cx="-330" cy="-40" r="34" fill="none" stroke="var(--accent-5)" stroke-width="3" stroke-dasharray="6 4"/>
      <g id="ITEM_5_ICON" transform="translate(-358, -68)" data-icon-size="56" stroke-dasharray="6 4">
        <g transform="translate(-13.005714285714289,-24.538571428571434) scale(2.562857142857143)">
          <path d="M5.5 11C5.22386 11 5 11.2239 5 11.5V13H9V11.5C9 11.2239 8.77614 11 8.5 11H5.5Z" fill="#D3D3D3"/>
          <path d="M21.5 11C21.2239 11 21 11.2239 21 11.5V13H27V11.5C27 11.2239 26.7761 11 26.5 11H21.5Z" fill="#D3D3D3"/>
          <path d="M2 14C2 12.8954 2.89543 12 4 12H28C29.1046 12 30 12.8954 30 14V16.5L28 22L30 27.5V28C30 29.1046 29.1046 30 28 30H4C2.89543 30 2 29.1046 2 28V27.5L3.5 22L2 16.5V14Z" fill="#E6E6E6"/>
          <path d="M2 16.5C2 16.2239 2.22386 16 2.5 16H29.5C29.7761 16 30 16.2239 30 16.5V27.5C30 27.7761 29.7761 28 29.5 28H2.5C2.22386 28 2 27.7761 2 27.5V16.5Z" fill="#533566"/>
          <path d="M22 22C22 25.3137 19.3137 28 16 28C12.6863 28 10 25.3137 10 22C10 18.6863 12.6863 16 16 16C19.3137 16 22 18.6863 22 22Z" fill="#321B41"/>
          <path d="M16 27C18.7614 27 21 24.7614 21 22C21 19.2386 18.7614 17 16 17C13.2386 17 11 19.2386 11 22C11 24.7614 13.2386 27 16 27ZM16 29C12.134 29 9 25.866 9 22C9 18.134 12.134 15 16 15C19.866 15 23 18.134 23 22C23 25.866 19.866 29 16 29Z" fill="#9B9B9B"/>
          <path d="M18.5 22C18.5 23.3807 17.3807 24.5 16 24.5C14.6193 24.5 13.5 23.3807 13.5 22C13.5 20.6193 14.6193 19.5 16 19.5C17.3807 19.5 18.5 20.6193 18.5 22Z" fill="#433B6B"/>
          <path d="M19.0825 19.875C19.4967 20.5924 19.4448 21.3979 18.9665 21.674C18.4882 21.9501 17.7647 21.5924 17.3505 20.875C16.9363 20.1575 16.9882 19.3521 17.4665 19.0759C17.9448 18.7998 18.6683 19.1575 19.0825 19.875Z" fill="white"/>
        </g>
      </g>
      <text id="ITEM_5_HEAD" x="0.0" y="-85.0" text-anchor="middle" font-weight="bold" font-size="28" fill="var(--accent-5)" data-bg-id="ITEM_5_BG" style="font-size: 30px; font-family: Inter, Segoe UI, Kalam, Roboto, Helvetica, Arial, sans-serif; font-weight: 700; letter-spacing:-0.4px;" data-final-font-size="30">
        <tspan x="0.0" dy="37.75px">Unverified Photos</tspan>
      </text>
      <rect id="ITEM_5_HEAD_FRAME" x="-310" y="-85" width="620" height="50" fill="none"/>
      <text id="ITEM_5_BODY" x="0.0" y="-20.0" text-anchor="middle" font-size="22" fill="var(--primary-text)" opacity="0.88" data-bg-id="ITEM_5_BG" style="font-size: 26px; font-family: Inter, Segoe UI, Kalam, Roboto, Helvetica, Arial, sans-serif; font-weight: 400;" data-final-font-size="26">
        <tspan x="0.0" dy="45.42px">Images without scale or location lack</tspan>
        <tspan x="0.0" dy="29.90px">evidentiary value</tspan>
      </text>
      <rect id="ITEM_5_BODY_FRAME" x="-310" y="-20" width="620" height="155" fill="none"/>
    </g>
  </g>
</svg>
